<?xml version="1.0" standalone="no"?>
<!DOCTYPE svg PUBLIC "-//W3C//DTD SVG 20010904//EN"
 "http://www.w3.org/TR/2001/REC-SVG-20010904/DTD/svg10.dtd">
<svg version="1.0" xmlns="http://www.w3.org/2000/svg"
 width="1035.000000pt" height="1080.000000pt" viewBox="0 0 1035.000000 1080.000000"
 preserveAspectRatio="xMidYMid meet">

<g transform="translate(0.000000,1080.000000) scale(0.100000,-0.100000)"
fill="#000000" stroke="none">
<path d="M3820 10233 c0 -22 93 -293 111 -322 11 -18 33 -38 49 -44 17 -6 30
-14 30 -17 0 -3 -16 -15 -35 -28 -39 -25 -44 -50 -16 -76 11 -10 17 -24 14
-32 -3 -8 2 -17 11 -20 13 -5 15 -14 11 -34 -5 -22 -1 -32 17 -45 18 -14 20
-18 8 -23 -26 -9 -80 -75 -80 -96 0 -37 12 -65 29 -71 21 -6 40 -56 34 -88 -6
-28 14 -97 27 -97 5 0 4 -15 -1 -32 -11 -39 -2 -125 16 -154 7 -11 13 -36 13
-55 -1 -19 5 -47 13 -64 7 -16 14 -55 16 -85 3 -74 3 -76 -3 -148 -6 -62 -6
-63 34 -102 l39 -39 -33 -11 c-49 -17 -142 -80 -208 -144 -48 -45 -65 -56 -93
-56 -38 0 -99 -50 -147 -119 -25 -36 -30 -39 -66 -34 -24 4 -55 -1 -80 -11
-50 -20 -60 -20 -60 -1 0 23 -31 31 -45 12 -11 -15 -16 -16 -47 -3 -66 28
-130 30 -183 7 -55 -24 -89 -20 -123 17 -21 22 -25 23 -45 9 -12 -8 -25 -30
-28 -48 -4 -19 -13 -50 -22 -69 -10 -24 -12 -40 -6 -52 12 -23 24 -23 58 1 32
23 67 18 76 -10 3 -10 18 -28 33 -41 15 -13 35 -40 44 -60 11 -23 33 -46 58
-60 22 -13 40 -26 40 -30 0 -4 -11 -28 -25 -54 -30 -57 -31 -83 -4 -118 26
-33 59 -33 96 -2 25 22 28 30 26 78 l-2 54 60 -1 c56 0 63 3 90 33 16 17 33
32 38 32 5 0 20 -15 34 -33 23 -30 24 -37 14 -75 -9 -35 -8 -44 6 -60 23 -25
21 -47 -5 -83 -20 -27 -22 -41 -23 -162 0 -85 5 -145 13 -169 23 -64 94 -116
198 -143 6 -2 21 -43 34 -92 12 -48 45 -143 71 -210 69 -172 86 -240 71 -289
-15 -51 -74 -148 -137 -224 -60 -73 -180 -174 -217 -183 -15 -4 -43 -28 -65
-57 -31 -40 -44 -49 -70 -50 -37 0 -85 -37 -102 -79 -7 -15 -24 -34 -38 -40
-127 -58 -310 -234 -408 -394 -28 -45 -37 -51 -135 -93 -144 -61 -136 -59
-148 -25 -12 34 -51 49 -85 34 -12 -6 -36 -8 -53 -6 -17 3 -46 -2 -65 -10 -31
-13 -37 -21 -49 -71 -15 -64 -20 -43 72 -296 27 -74 57 -141 66 -148 12 -9 31
-11 61 -7 61 9 71 14 71 36 0 22 22 24 69 8 26 -9 32 -16 28 -33 -3 -11 -15
-70 -27 -131 -12 -60 -30 -126 -40 -145 -35 -69 -101 -279 -107 -342 -3 -36
-1 -94 5 -129 6 -35 14 -133 18 -217 7 -149 6 -153 -15 -173 -25 -24 -22 -58
9 -119 10 -19 23 -67 29 -107 32 -208 177 -422 420 -618 112 -91 109 -90 170
-89 79 2 160 36 208 87 22 23 58 54 81 70 53 35 126 133 171 227 l36 75 3 -65
c2 -36 -1 -105 -8 -155 -14 -108 -8 -130 54 -186 42 -39 56 -63 92 -164 31
-88 87 -122 151 -91 36 17 63 64 63 109 0 36 19 85 36 91 13 5 14 0 7 -27 -22
-88 8 -157 69 -157 34 0 77 42 79 76 1 13 3 29 4 34 1 6 3 32 4 60 1 40 7 56
32 85 25 28 38 35 68 35 41 0 60 -15 110 -90 22 -33 50 -56 103 -85 53 -29 78
-50 91 -75 19 -36 19 -39 0 -235 -4 -49 -1 -71 17 -113 66 -154 260 -203 337
-85 15 23 18 52 18 199 0 155 2 174 19 193 21 23 52 27 90 10 42 -20 72 -4 88
43 10 34 21 47 50 60 43 21 53 33 53 71 0 25 6 30 50 45 28 10 65 27 82 40 39
27 63 28 97 1 44 -35 57 -74 71 -214 13 -149 31 -196 85 -233 22 -15 48 -22
77 -22 38 0 51 6 79 34 32 32 34 38 34 100 0 75 18 129 48 145 29 15 26 17 87
-39 47 -43 61 -50 96 -50 49 0 90 20 114 56 15 23 17 41 12 113 -4 65 -2 96
10 126 8 22 23 61 32 86 9 25 33 65 53 90 55 67 115 165 140 228 22 53 23 69
22 276 0 143 -6 272 -18 370 -14 121 -16 190 -11 360 7 229 -1 297 -51 434
l-24 66 21 17 c12 10 24 18 28 18 3 0 19 -26 36 -58 63 -121 185 -220 509
-412 87 -52 160 -99 161 -105 2 -5 6 -26 9 -46 9 -52 48 -91 88 -87 45 4 73
46 74 111 2 78 3 84 20 101 25 25 34 10 34 -58 0 -47 5 -70 18 -86 23 -29 67
-29 95 -1 19 19 22 34 24 115 1 106 14 139 67 180 23 17 39 40 46 66 6 21 15
42 20 45 5 3 19 -27 31 -67 30 -101 42 -118 84 -118 42 0 46 6 52 83 8 94 30
120 66 79 23 -25 22 -125 -2 -227 -42 -173 -34 -285 26 -363 53 -71 157 -90
210 -40 68 64 69 152 4 313 -26 65 -41 116 -41 145 0 54 33 155 51 155 21 0
56 -61 63 -109 4 -25 16 -56 27 -70 32 -41 99 -31 99 15 0 9 7 22 16 29 13 11
18 10 36 -7 17 -18 21 -39 27 -139 7 -121 19 -159 53 -170 50 -16 78 45 53
115 -16 46 -19 83 -9 94 4 3 19 -7 34 -23 34 -36 84 -40 123 -10 34 27 41 65
22 125 -38 126 -7 198 119 269 63 37 91 94 83 174 -7 64 -1 82 25 82 24 0 59
18 75 39 33 43 3 103 -90 179 -138 112 -177 229 -143 434 42 257 -6 366 -175
393 -24 4 -87 26 -139 50 -125 57 -196 70 -313 59 -51 -4 -117 -6 -147 -5 -30
2 -98 4 -150 5 -91 1 -99 -1 -175 -37 -105 -50 -143 -54 -300 -27 -157 27
-318 25 -375 -4 -117 -60 -142 -154 -71 -263 50 -78 54 -93 40 -145 -6 -24
-11 -70 -10 -102 l1 -60 -51 75 c-162 235 -333 389 -515 464 -38 16 -80 39
-94 51 -47 42 -165 115 -265 165 -55 28 -110 60 -122 71 -17 16 -30 19 -53 14
-26 -5 -35 -1 -56 23 -27 32 -127 70 -260 97 -171 35 -403 139 -493 220 l-45
41 -4 204 c-7 352 -6 366 30 371 36 5 44 46 28 146 -8 48 -15 117 -17 154 -1
38 -7 85 -13 105 -7 27 -7 53 2 90 8 40 8 62 0 92 -17 55 -15 71 8 71 12 0 31
11 44 23 15 16 36 24 61 25 47 2 90 29 138 86 32 39 41 44 57 36 10 -5 30 -10
45 -10 l26 0 -5 -101 c-4 -80 -10 -106 -26 -130 -23 -32 -35 -88 -23 -106 5
-6 35 -16 68 -22 127 -22 211 -39 232 -46 20 -6 21 -5 13 28 -10 48 22 197 52
237 18 24 24 48 26 105 l4 73 -106 13 c-58 7 -106 15 -106 18 0 3 9 20 20 38
16 27 26 32 62 35 39 3 43 5 40 28 -4 32 -31 53 -57 45 -38 -12 -220 -26 -280
-23 -33 2 -81 10 -106 18 -39 11 -55 11 -108 -1 -77 -17 -121 -55 -121 -105 0
-38 -9 -64 -21 -64 -5 0 -9 11 -9 24 0 32 -20 87 -39 110 -9 10 -41 31 -71 46
-30 15 -69 45 -86 66 -32 40 -219 159 -270 173 -22 6 -27 13 -29 41 -4 70 -32
144 -67 175 l-33 31 1 99 c0 64 -4 115 -14 140 -7 22 -20 61 -27 87 -7 25 -18
55 -24 66 -14 26 -30 162 -19 168 25 15 1 105 -37 140 -14 13 -25 32 -25 43 0
25 -45 61 -76 61 -13 0 -34 -5 -47 -11 -18 -8 -30 -8 -46 0 -33 18 -26 37 14
38 35 1 65 17 65 35 0 5 -13 14 -30 19 l-29 11 27 23 c23 19 24 25 13 39 -18
22 -47 20 -88 -5 -49 -30 -51 -17 -3 15 28 18 40 33 40 50 0 27 -29 56 -57 56
-28 0 -47 25 -72 95 -47 129 -121 269 -121 228z m227 -379 c2 -13 1 -15 -4 -4
-3 8 -11 19 -17 23 -7 6 -6 7 4 4 8 -2 16 -12 17 -23z m23 -128 c0 -2 -9 -6
-20 -9 -11 -3 -20 -1 -20 4 0 5 9 9 20 9 11 0 20 -2 20 -4z m-47 -86 c3 -11 1
-18 -4 -14 -5 3 -9 12 -9 20 0 20 7 17 13 -6z m-50 -165 c4 -27 3 -35 -3 -25
-5 8 -10 28 -10 44 0 39 6 30 13 -19z m223 16 c-9 -14 -128 -43 -160 -38 -37
5 -43 20 -14 35 27 13 182 16 174 3z m-226 -1181 c6 -11 8 -20 6 -20 -3 0 -10
9 -16 20 -6 11 -8 20 -6 20 3 0 10 -9 16 -20z m1595 -29 c5 -17 4 -22 -6 -19
-8 3 -15 18 -17 34 -4 33 11 24 23 -15z m-1578 -33 c-3 -8 -6 -5 -6 6 -1 11 2
17 5 13 3 -3 4 -12 1 -19z m634 -39 c40 -17 56 -20 86 -12 72 18 135 -21 182
-113 20 -39 50 -157 51 -198 0 -16 -2 -16 -18 5 -10 13 -26 44 -36 69 -29 75
-78 113 -185 146 -78 24 -86 20 -56 -23 45 -66 58 -132 50 -250 -5 -74 -4
-108 5 -118 6 -8 9 -19 5 -25 -10 -17 0 -12 40 20 47 37 85 38 144 5 52 -30
50 -30 44 -2 -21 83 -121 98 -198 29 l-30 -27 25 28 c36 42 97 70 163 77 l57
6 1 -76 c3 -146 8 -222 18 -273 19 -90 19 -120 0 -187 -22 -74 -23 -90 -9 -90
6 0 10 10 11 23 0 12 3 30 7 39 4 9 7 -40 7 -110 0 -70 -1 -117 -3 -104 -2 12
-7 22 -11 22 -4 0 -3 -38 2 -85 12 -111 4 -160 -39 -231 -20 -33 -38 -74 -41
-92 l-6 -33 -21 36 -22 35 0 -55 c0 -39 -5 -62 -20 -82 -55 -75 -154 -104
-265 -79 -102 23 -199 77 -199 112 0 6 -6 17 -14 23 -12 10 -15 8 -18 -9 -3
-20 -5 -19 -58 13 -30 19 -100 59 -156 90 -146 83 -142 76 -162 259 -12 98
-24 164 -34 179 -8 13 -19 40 -23 59 l-8 35 -11 -31 c-13 -35 -21 -36 -110
-10 -78 23 -101 40 -134 95 -25 43 -27 53 -27 172 0 139 7 159 57 159 48 0
106 -37 139 -87 16 -26 29 -53 29 -60 0 -7 8 -22 18 -33 9 -11 20 -30 24 -43
3 -12 6 13 7 56 1 61 8 95 32 159 17 44 40 89 50 99 12 12 14 19 6 22 -9 3 -8
8 2 20 18 22 11 54 -33 157 -57 135 -48 197 34 238 19 10 34 23 32 30 -1 9 6
7 23 -4 15 -10 32 -13 42 -9 10 4 77 11 148 15 72 5 157 15 190 23 89 22 158
21 216 -4z m-1181 -100 c-18 -59 -47 -115 -56 -106 -2 2 5 24 16 50 11 25 23
66 26 91 5 36 10 44 19 36 10 -9 9 -23 -5 -71z m-320 51 c-8 -5 -12 -10 -7
-10 4 0 0 -15 -9 -32 -10 -18 -19 -28 -21 -21 -6 17 25 73 40 73 8 0 7 -4 -3
-10z m2563 3 l67 -6 0 -35 c0 -34 0 -34 -37 -28 -21 3 -74 10 -118 15 -44 5
-88 13 -99 17 -17 7 -17 8 5 25 26 20 70 23 182 12z m-110 -63 c21 0 67 -6
102 -12 62 -12 65 -14 65 -42 0 -22 -11 -40 -45 -70 -25 -23 -45 -48 -45 -56
0 -10 7 -6 20 10 l19 25 -6 -45 c-8 -73 -22 -110 -39 -103 -11 4 -9 -4 7 -31
l21 -36 -25 9 c-35 13 -132 32 -196 37 -29 2 -57 7 -62 10 -23 14 8 100 50
138 26 24 30 56 4 35 -15 -13 -16 -9 -10 50 4 35 7 74 7 87 0 23 0 23 48 9 26
-8 64 -15 85 -15z m-2178 -124 c94 -35 130 -64 122 -98 -7 -27 -44 -48 -85
-48 -39 0 -55 14 -48 38 6 18 1 23 -33 33 -35 10 -44 10 -59 -4 -17 -15 -21
-15 -55 10 -42 30 -56 65 -36 89 19 23 104 14 194 -20z m-28 -100 c2 -2 -1
-14 -6 -27 -4 -13 -6 -47 -4 -75 5 -43 2 -55 -16 -73 -30 -30 -68 -28 -83 4
-10 22 -8 34 11 78 13 29 26 65 28 80 5 26 8 28 36 23 17 -3 32 -8 34 -10z
m569 -169 c-14 -18 -29 -44 -35 -57 -6 -15 -10 -19 -10 -9 -1 16 54 99 65 99
3 0 -6 -15 -20 -33z m1122 -322 c-1 -14 -6 -25 -9 -25 -4 0 -10 -8 -12 -17 -4
-14 -5 -12 -6 5 -1 18 17 62 26 62 2 0 2 -11 1 -25z m-1169 -292 c7 -14 14
-54 17 -87 3 -34 7 -74 9 -91 4 -25 3 -27 -6 -12 -14 23 -69 187 -69 204 0 24
37 14 49 -14z m1165 -533 l6 -45 -14 37 c-8 20 -17 59 -20 85 l-6 48 14 -40
c7 -23 16 -61 20 -85z m42 10 c27 -110 25 -283 -4 -375 -43 -136 -53 -111 -16
40 27 113 22 290 -12 410 -4 13 -3 17 4 10 5 -5 18 -44 28 -85z m37 37 c9 -25
108 -68 301 -132 108 -36 203 -65 211 -65 26 0 16 -18 -27 -47 -50 -34 -159
-163 -153 -181 3 -7 1 -11 -3 -8 -9 6 -166 -173 -159 -180 3 -3 31 23 63 58
33 35 52 54 44 43 -27 -38 -103 -114 -110 -110 -3 2 -40 -28 -81 -67 -82 -77
-193 -164 -253 -198 -35 -19 -38 -19 -31 -3 4 10 20 55 36 101 15 45 48 122
72 170 94 184 130 437 82 574 -8 24 -15 46 -15 51 0 12 18 8 23 -6z m-1130
-179 c7 -129 86 -420 143 -530 8 -15 14 -31 14 -35 -1 -14 -48 81 -79 160 -57
143 -120 421 -107 473 12 48 23 22 29 -68z m42 -15 c20 -68 66 -119 116 -127
144 -22 130 -15 186 -91 29 -38 51 -71 49 -73 -11 -10 -209 53 -271 86 -58 32
-72 44 -82 74 -11 33 -26 188 -18 188 2 0 11 -26 20 -57z m1756 -43 c28 -29
36 -45 32 -62 -4 -18 -1 -16 16 10 22 34 39 40 58 21 9 -9 6 -17 -12 -31 -29
-22 -44 -72 -80 -248 -14 -73 -38 -154 -57 -195 l-32 -70 17 -95 c9 -52 18
-102 21 -110 2 -9 -28 -44 -82 -93 -121 -110 -218 -155 -394 -182 -67 -10 -92
-66 -44 -102 l24 -18 -67 -70 c-36 -39 -83 -100 -104 -135 -75 -130 -163 -459
-254 -947 -34 -183 -36 -213 -37 -398 -1 -206 5 -256 46 -385 67 -212 207
-342 400 -372 68 -10 77 -14 83 -36 6 -25 -9 -52 -30 -52 -20 0 -65 -40 -65
-59 0 -9 -6 -26 -14 -36 -12 -17 -18 -18 -68 -6 -65 16 -89 7 -114 -41 -14
-26 -15 -53 -9 -182 7 -148 6 -152 -17 -186 -32 -48 -63 -62 -126 -57 -69 5
-127 46 -166 118 -27 52 -28 57 -20 144 19 216 9 249 -99 302 -50 25 -75 44
-95 75 -50 76 -87 108 -123 108 -83 -1 -120 -47 -129 -166 -6 -78 -10 -90 -34
-111 -34 -29 -41 -29 -73 3 -22 22 -25 32 -21 75 6 56 14 70 29 49 8 -12 9 -9
7 10 -2 20 -9 26 -35 28 -40 4 -58 -22 -68 -96 -9 -70 -43 -112 -91 -112 -46
0 -76 33 -99 107 -26 85 -50 127 -88 156 -53 40 -62 73 -48 170 16 115 14 226
-5 278 -8 24 -15 69 -15 99 0 53 2 57 46 95 l46 40 -81 305 c-45 168 -87 327
-95 355 -13 44 -12 51 2 67 9 10 15 34 15 60 -1 35 -6 48 -31 68 -22 19 -29
32 -25 47 4 13 -3 41 -16 66 -18 37 -20 48 -10 67 16 31 15 102 -4 138 -17 32
-71 82 -89 82 -24 0 11 19 77 40 88 29 116 55 116 110 0 42 -26 174 -40 200
-7 12 0 15 38 15 57 0 62 13 36 99 -15 50 -16 60 -4 64 8 3 41 19 75 36 54 28
60 35 63 66 3 34 6 36 86 66 l83 32 69 -24 c38 -12 113 -30 168 -40 92 -15
101 -19 130 -53 17 -20 62 -69 101 -109 l70 -74 1 -61 c2 -97 60 -287 88 -291
23 -3 38 100 33 224 l-4 125 65 102 c63 98 69 104 117 119 67 22 217 98 285
144 105 71 196 165 263 273 29 45 10 30 -25 -20 -71 -104 -163 -185 -300 -267
-75 -44 -258 -129 -258 -120 0 3 14 31 32 62 27 51 42 64 118 109 200 120 366
265 487 428 41 55 113 144 161 197 78 87 91 98 121 98 27 0 42 -8 72 -40z
m-1024 -40 c-45 -49 -78 -102 -101 -160 -10 -25 -23 -48 -29 -52 -7 -4 -38 -8
-69 -8 -49 0 -58 3 -58 18 0 9 -10 45 -22 79 l-22 63 24 25 c13 14 40 29 59
35 46 13 47 13 65 -5 13 -14 13 -19 0 -50 -15 -36 -31 -155 -21 -155 3 0 19
28 37 63 45 90 97 156 133 172 18 8 34 14 36 15 2 0 -13 -18 -32 -40z m159 6
c28 -13 54 -29 58 -34 10 -16 -72 -80 -149 -116 -79 -38 -144 -60 -151 -53 -9
9 55 131 93 179 45 56 71 60 149 24z m-967 -48 c46 -236 168 -539 274 -679 20
-27 37 -51 37 -53 0 -3 -70 7 -165 23 -33 6 -64 11 -70 11 -5 0 5 9 23 20 39
24 44 71 10 107 -27 29 -34 29 -98 -1 l-52 -24 -48 34 c-44 31 -75 63 -135
135 -11 13 -38 39 -60 56 -37 31 -40 36 -41 90 -2 99 13 139 71 181 27 20 81
65 120 99 48 44 77 63 96 63 24 0 27 -5 38 -62z m1065 -16 c-78 -68 -97 -74
-34 -11 36 35 67 60 69 55 2 -6 -14 -25 -35 -44z m887 24 c-17 -21 17 -52 71
-66 62 -15 85 -26 161 -77 37 -25 66 -50 64 -57 -4 -12 -55 -13 -129 -1 -66
10 -66 -16 -1 -33 78 -21 213 -94 270 -146 59 -54 99 -114 125 -191 30 -89 74
-85 64 6 -6 60 -30 111 -89 186 l-48 62 48 -21 c78 -34 325 -220 371 -280 42
-54 62 -96 62 -127 0 -24 150 -251 166 -251 26 0 14 53 -27 123 l-41 69 6 96
c13 185 15 172 -33 242 -39 59 -43 69 -38 113 13 137 173 177 487 122 125 -22
177 -17 280 30 109 49 212 58 303 28 31 -11 57 -16 57 -12 0 20 168 33 254 19
39 -6 109 -29 165 -55 53 -24 122 -49 154 -55 71 -14 119 -53 143 -115 18 -50
16 -144 -7 -292 -27 -172 21 -300 152 -408 86 -71 102 -93 97 -133 -4 -32 -53
-65 -66 -45 -7 10 -12 10 -28 -1 -16 -12 -19 -27 -19 -98 -1 -46 -6 -93 -13
-104 -13 -25 -54 -59 -109 -92 -21 -13 -50 -39 -63 -59 -21 -31 -25 -48 -24
-107 0 -39 4 -96 8 -127 7 -46 6 -58 -9 -72 -34 -34 -115 -11 -115 33 0 23
-39 72 -51 64 -5 -3 -2 -12 6 -20 19 -19 19 -28 0 -44 -19 -16 -19 -51 0 -113
10 -35 12 -54 4 -68 -12 -23 -45 -25 -53 -3 -6 15 -4 15 11 3 15 -13 16 -12 9
6 -4 11 -13 69 -19 129 -10 97 -14 112 -39 138 -39 41 -79 36 -94 -12 -22 -69
-74 -43 -90 45 -10 56 -30 93 -64 113 -20 12 -26 22 -20 31 4 8 13 10 19 7 6
-4 11 0 11 8 0 19 -34 21 -47 4 -15 -20 -46 -147 -50 -209 -4 -48 2 -71 41
-171 34 -87 46 -130 46 -170 0 -87 -45 -140 -118 -137 -17 1 -21 3 -9 6 9 2
17 9 17 14 0 5 -8 9 -17 9 -28 1 -63 24 -84 56 -24 36 -25 126 -4 237 8 43 14
100 14 125 -2 33 -3 38 -6 17 -2 -16 -13 -68 -25 -115 -27 -109 -29 -214 -5
-257 10 -18 15 -33 12 -33 -2 0 -14 18 -25 41 -33 63 -36 156 -10 274 31 141
36 224 16 263 -36 69 -106 38 -106 -47 0 -70 -9 -91 -36 -91 -12 0 -26 4 -29
10 -4 6 1 7 12 3 15 -6 16 -4 5 9 -7 8 -17 42 -23 74 -6 33 -15 64 -21 69 -7
7 -9 4 -5 -10 3 -11 8 -38 11 -60 4 -34 2 -31 -14 18 -10 32 -26 67 -36 78
-18 20 -64 26 -64 9 0 -5 9 -10 20 -10 24 0 25 -8 5 -34 -8 -11 -15 -28 -15
-37 0 -10 -18 -32 -39 -50 -57 -45 -71 -82 -71 -181 0 -59 -4 -90 -16 -106
-15 -23 -58 -30 -69 -12 -3 5 0 7 8 5 11 -5 13 7 10 57 -7 113 -33 188 -66
188 -6 0 -3 -8 5 -17 25 -28 40 -93 36 -153 l-4 -55 -2 66 c-2 67 -24 109 -57
109 -20 0 -19 -10 2 -25 15 -11 15 -13 -4 -19 -27 -9 -45 -60 -37 -102 8 -43
-12 -101 -37 -109 -14 -5 -26 1 -41 17 -29 33 -38 62 -38 126 0 124 -52 220
-166 308 -96 74 -195 154 -303 244 -46 38 -97 75 -113 82 -19 9 -26 18 -22 28
26 64 7 66 -50 7 -57 -60 -119 -103 -175 -122 -53 -17 -81 -44 -130 -123 -40
-63 -116 -132 -145 -132 -25 0 -86 35 -86 50 0 6 29 61 64 123 63 113 116 212
116 221 0 3 -9 4 -21 3 -26 -2 -49 -33 -89 -123 -83 -184 -83 -184 -134 -164
-33 12 -33 35 -1 130 14 40 25 87 25 104 0 17 8 45 18 61 29 48 35 68 17 62
-8 -4 -19 1 -24 11 -7 12 -10 13 -11 3 0 -7 -6 -11 -13 -8 -9 3 -26 -38 -57
-142 -24 -80 -44 -153 -44 -162 0 -28 -61 -23 -96 8 l-32 29 20 84 c31 130 35
174 22 214 -13 40 -35 49 -28 12 4 -20 0 -26 -16 -28 -25 -4 -78 -73 -131
-172 -36 -68 -39 -78 -28 -105 10 -28 9 -31 -8 -31 -24 0 -52 42 -43 65 5 11
3 16 -2 12 -11 -7 -1 112 14 160 12 36 93 200 124 251 28 45 93 91 140 98 51
9 39 23 -18 22 -57 -1 -93 -30 -154 -123 -23 -36 -45 -65 -49 -65 -3 1 -17 7
-31 15 -49 28 -165 11 -248 -36 -39 -23 -42 -23 -59 -6 -30 29 -6 50 73 63
150 26 261 84 367 194 90 92 127 114 222 131 78 13 483 6 550 -10 27 -7 -36
-8 -195 -3 -310 8 -369 7 -415 -12 -49 -21 -39 -31 16 -16 48 13 557 -2 704
-21 107 -14 186 -50 236 -108 25 -30 39 -40 39 -29 0 9 -5 20 -10 23 -8 5 -8
11 -1 19 18 21 -33 81 -91 110 -84 41 -315 77 -539 83 l-185 6 4 26 c2 18 -10
46 -39 91 -63 97 -82 146 -75 190 3 21 1 62 -5 91 -14 73 -18 248 -4 253 17 7
18 6 6 -8z m-1666 -164 c96 -35 58 -36 -45 -2 -102 34 -147 57 -153 79 -4 18
0 17 52 -12 31 -17 97 -47 146 -65z m790 76 c-47 -144 -120 -331 -170 -434
l-63 -131 -54 -26 c-71 -32 -161 -54 -273 -66 -78 -8 -91 -7 -102 7 -92 119
-194 300 -252 448 -41 105 -62 174 -42 142 6 -9 44 -30 83 -46 154 -64 312
-89 450 -72 138 16 329 93 391 156 37 38 38 38 32 22z m-1411 -76 c3 -5 -2
-31 -10 -58 -19 -61 -13 -106 21 -149 25 -34 25 -34 4 -40 -12 -4 -32 -1 -45
6 -17 9 -33 10 -51 3 -24 -8 -31 -18 -53 -64 -4 -8 -18 -15 -31 -16 -45 -1
-49 -4 -49 -35 0 -23 -4 -30 -17 -27 -19 4 -31 35 -32 91 -3 101 53 193 111
185 24 -4 34 2 65 41 53 67 75 82 87 63z m-276 -260 c-3 -43 -5 -47 -28 -47
-25 0 -25 -1 -24 -82 l0 -82 -170 -72 c-94 -39 -177 -74 -185 -77 -17 -7 33
70 106 160 56 69 149 150 243 212 30 20 56 36 58 36 1 0 1 -21 0 -48z m393
-39 c13 -16 12 -17 -3 -4 -10 7 -18 15 -18 17 0 8 8 3 21 -13z m133 -154 c4
-4 -6 -15 -23 -23 -30 -16 -32 -16 -40 6 -5 13 -17 40 -26 62 l-16 38 48 -38
c26 -21 52 -41 57 -45z m2669 -96 c-7 -2 -19 -2 -25 0 -7 3 -2 5 12 5 14 0 19
-2 13 -5z m-1785 -25 c-8 -13 -36 -58 -63 -101 -34 -55 -51 -75 -58 -68 -18
18 -75 13 -87 -6 -9 -16 -18 -10 -75 52 l-65 70 83 6 c90 7 161 23 222 50 54
24 60 23 43 -3z m-11 -90 c-59 -103 -97 -156 -97 -133 0 20 120 209 128 201 2
-3 -12 -33 -31 -68z m-224 -106 c9 -8 17 -22 17 -30 0 -11 -9 -7 -30 13 -47
45 -36 59 13 17z m87 -141 c0 -160 -10 -207 -29 -134 -21 83 -23 109 -16 199
6 83 9 94 26 94 18 0 19 -9 19 -159z m946 7 c14 -14 14 -18 0 -45 -14 -29 -18
-30 -64 -25 -62 5 -134 -17 -202 -64 -36 -25 -48 -29 -44 -16 5 14 3 14 -10
-3 -34 -41 -106 -333 -106 -427 0 -15 -4 -28 -10 -28 -13 0 -13 50 1 106 15
58 -1 97 -44 115 -18 7 -34 14 -35 15 -2 1 18 44 44 96 73 140 191 252 304
289 41 13 148 5 166 -13z m-1992 -101 c7 -28 6 -28 -21 -14 -15 8 -46 18 -68
22 l-40 8 55 17 c59 18 62 16 74 -33z m1956 3 c0 -6 -9 -28 -20 -50 -11 -22
-20 -52 -20 -68 l0 -29 -107 -5 c-60 -2 -119 -10 -131 -17 -30 -16 -35 -11
-22 25 22 57 101 121 180 145 38 11 120 10 120 -1z m-2162 -44 c35 -40 48 -37
26 5 -17 33 -19 33 75 19 34 -5 72 -16 82 -26 24 -22 25 -75 1 -104 -17 -21
-20 -21 -82 -10 -73 14 -188 7 -265 -15 -27 -8 -75 -21 -105 -30 -30 -8 -73
-24 -95 -34 -40 -19 -40 -19 -10 -20 17 0 48 6 70 14 47 17 51 14 32 -17 -8
-12 -18 -34 -21 -48 -6 -22 -5 -23 6 -9 7 9 19 14 26 12 6 -3 12 1 12 7 0 8 6
9 18 4 9 -5 91 -11 182 -14 159 -5 165 -6 175 -27 12 -27 25 -30 25 -5 1 30
39 -51 39 -83 1 -46 -13 -60 -29 -31 -24 46 -50 48 -235 25 -94 -12 -191 -24
-217 -26 -51 -5 -62 -17 -25 -27 36 -9 104 -7 242 9 213 25 215 25 215 -44 0
-27 3 -31 13 -22 11 8 18 3 33 -24 26 -49 10 -64 -49 -46 -64 20 -133 24 -185
11 -55 -13 -152 -60 -152 -73 0 -5 7 -6 16 -3 41 16 165 36 221 36 58 0 63 -2
69 -24 3 -14 3 -29 0 -35 -4 -5 -2 -12 3 -15 13 -9 24 29 16 55 -6 18 -4 20
17 14 12 -4 42 -15 65 -25 49 -22 66 -59 39 -89 -14 -15 -28 -17 -94 -13 -99
6 -166 -9 -267 -57 -44 -21 -115 -55 -157 -74 -43 -20 -78 -41 -78 -47 0 -7 8
-9 20 -5 25 8 25 4 0 -45 -22 -42 -47 -62 -175 -130 -85 -45 -108 -60 -101
-67 2 -2 43 14 91 37 102 47 124 50 118 18 -2 -13 9 -47 26 -80 20 -37 31 -72
31 -98 0 -22 6 -55 13 -73 27 -65 29 -85 7 -107 -39 -39 -241 -19 -310 30 -15
11 -43 43 -63 72 l-36 53 -3 133 c-3 128 -2 132 15 111 22 -27 21 -22 -4 76
-39 148 -35 176 45 405 46 131 86 297 98 409 6 54 249 172 384 187 32 3 61 8
63 10 2 2 26 4 52 4 41 0 51 -4 77 -34z m2418 18 c-3 -9 -6 -25 -7 -37 0 -21
-1 -21 -10 2 -11 28 -5 51 12 51 6 0 8 -7 5 -16z m-31 -138 c-4 -45 -8 -108
-9 -140 -1 -36 -6 -61 -13 -63 -7 -3 -27 -14 -45 -27 -31 -21 -33 -25 -34 -84
-2 -104 -11 -80 -21 60 -12 158 -6 184 63 294 40 65 48 74 57 59 6 -11 7 -49
2 -99z m-230 44 c-4 -17 -9 -29 -12 -26 -3 2 -2 19 2 36 4 17 9 29 12 26 3 -2
2 -19 -2 -36z m-908 8 c-3 -8 -6 -5 -6 6 -1 11 2 17 5 13 3 -3 4 -12 1 -19z
m1963 -21 c0 -2 -10 -12 -22 -23 l-23 -19 19 23 c18 21 26 27 26 19z m84 -56
c28 -21 92 -76 141 -120 50 -45 128 -109 176 -141 47 -32 100 -73 118 -92 54
-53 114 -198 83 -198 -4 0 -24 11 -45 25 -20 14 -37 23 -37 21 0 -9 -260 152
-315 194 -70 54 -134 122 -198 210 l-55 75 37 32 c20 18 38 32 40 33 2 0 27
-18 55 -39z m-1203 23 c33 -6 37 -10 48 -55 16 -60 45 -99 75 -99 19 0 24 -7
29 -37 4 -20 5 -39 3 -40 -2 -2 -25 10 -52 26 -26 17 -63 34 -81 37 -49 9
-219 -47 -278 -91 -25 -19 -45 -29 -45 -22 0 25 31 189 40 213 18 47 161 84
261 68z m-1991 -34 c0 -5 -4 -10 -10 -10 -5 0 -10 5 -10 10 0 6 5 10 10 10 6
0 10 -4 10 -10z m2864 -107 c-46 -59 -60 -73 -49 -53 12 22 76 100 82 100 3 0
-12 -21 -33 -47z m33 -56 c-25 -52 -25 -53 -11 -132 24 -130 10 -176 -79 -267
-60 -60 -72 -88 -86 -193 l-10 -70 4 90 c5 129 17 160 85 225 50 48 59 62 65
105 7 43 -9 152 -29 205 -4 9 11 34 36 64 50 58 61 46 25 -27z m-562 -101 c17
-124 29 -151 91 -203 85 -70 102 -89 113 -129 12 -44 15 -210 4 -217 -5 -3 -7
33 -5 79 4 108 -14 149 -103 228 -36 32 -72 70 -79 84 -22 43 -66 213 -66 257
0 36 1 38 16 24 10 -11 21 -55 29 -123z m-254 86 c62 -40 69 -52 72 -122 2
-58 0 -63 -30 -88 -17 -15 -46 -36 -65 -47 -42 -25 -84 -107 -93 -180 -8 -62
-5 -61 -121 -49 l-59 6 0 102 c0 87 -3 107 -24 146 -13 24 -37 57 -53 72 l-30
28 22 30 c30 42 85 75 173 105 99 33 152 32 208 -3z m429 -27 c16 -3 30 -14
33 -26 6 -24 7 -24 -49 6 -51 27 -84 31 -116 14 -23 -13 -24 -12 -33 23 -7 26
-6 27 41 30 39 2 53 -1 72 -19 13 -12 36 -25 52 -28z m320 -19 c0 -8 3 -22 6
-31 6 -13 3 -14 -19 -4 -22 10 -24 14 -14 30 14 22 27 25 27 5z m-322 -25
c120 -61 210 -75 242 -36 16 19 45 19 74 0 30 -20 41 -81 24 -138 -10 -36 -12
-38 -15 -17 -8 50 -11 53 -43 34 -16 -10 -32 -25 -35 -33 -7 -17 20 -41 44
-41 8 0 -3 -16 -26 -37 -49 -46 -69 -105 -79 -233 l-7 -88 -41 5 c-87 9 -81 0
-81 115 0 133 -19 178 -99 238 -69 52 -92 89 -104 164 -8 51 -7 61 9 77 27 27
72 23 137 -10z m237 -11 c-10 -11 -22 -20 -28 -20 -5 0 1 9 14 20 31 25 37 25
14 0z m-1220 -389 c38 -25 40 -30 43 -84 2 -31 1 -57 -1 -57 -10 0 -114 49
-129 62 -14 11 -15 20 -6 66 10 47 13 52 32 46 11 -3 39 -18 61 -33z m3472
-28 c-3 -10 -5 -4 -5 12 0 17 2 24 5 18 2 -7 2 -21 0 -30z m-3117 -4 c141 -12
170 -22 148 -51 -12 -15 -26 -15 -178 0 -146 15 -165 19 -168 36 -5 23 16 38
43 31 11 -2 81 -10 155 -16z m1130 -117 c-23 -29 -110 -102 -122 -102 -5 0 -8
18 -8 41 0 38 6 47 73 113 l72 71 3 -48 c2 -36 -2 -54 -18 -75z m-3316 56 c24
-37 123 -424 112 -436 -2 -1 -28 10 -58 25 -51 26 -56 31 -62 70 -9 52 -46 85
-89 81 -26 -3 -31 2 -47 42 l-18 45 44 48 c23 26 48 64 54 85 6 20 13 43 15
50 7 19 33 14 49 -10z m2566 -27 c0 -39 0 -39 -62 -60 -67 -23 -81 -18 -76 28
2 19 12 26 48 35 25 7 54 17 65 24 11 6 21 12 23 12 1 0 2 -18 2 -39z m-361
21 c30 -4 56 -13 59 -19 3 -10 -23 -13 -107 -13 -104 0 -111 1 -111 20 0 18 6
20 53 19 28 -1 76 -4 106 -7z m430 -36 c8 -9 10 -31 5 -65 -4 -28 -8 -51 -10
-51 -2 0 -15 5 -29 12 -21 9 -25 18 -25 52 0 65 9 87 29 76 10 -5 23 -15 30
-24z m-307 -24 c6 -6 8 -18 5 -27 -6 -13 -29 -15 -179 -13 -165 3 -173 4 -173
23 0 26 27 30 198 29 85 -1 142 -5 149 -12z m-534 -72 l72 -42 0 -54 0 -53
-47 20 c-27 11 -67 30 -91 42 -42 22 -43 23 -37 62 9 56 15 76 23 72 4 -2 40
-23 80 -47z m1121 39 c154 -14 161 -16 161 -40 0 -11 -6 -22 -13 -25 -15 -5
-314 23 -328 32 -5 3 -9 14 -9 25 0 23 20 24 189 8z m-639 -44 l0 -25 -120 0
c-66 0 -120 4 -120 9 0 38 11 41 126 41 l114 0 0 -25z m1073 -52 l6 -48 -79
-77 c-83 -82 -110 -95 -110 -54 0 13 -3 37 -6 54 -6 29 -2 33 65 77 40 26 80
58 89 71 9 13 20 24 23 24 4 0 9 -21 12 -47z m-797 -61 c-10 -10 -101 -30
-107 -23 -4 3 -9 24 -12 46 l-6 40 62 15 62 15 3 -44 c2 -24 1 -46 -2 -49z
m419 82 c88 -10 54 -22 -57 -21 -92 2 -103 4 -106 21 -4 17 1 18 52 12 31 -3
81 -9 111 -12z m-632 -23 c7 -7 6 -15 -3 -26 -11 -13 -38 -15 -179 -13 -153 3
-166 4 -169 22 -2 10 1 22 7 25 17 11 332 4 344 -8z m722 -36 c0 -19 -8 -20
-171 -23 -150 -2 -172 0 -178 14 -3 9 -3 20 0 25 3 5 78 8 177 7 164 -3 172
-4 172 -23z m-785 -40 l0 -25 -130 0 c-119 0 -130 1 -130 18 0 10 3 22 7 25 3
4 62 7 130 7 l123 0 0 -25z m329 1 c7 -8 11 -32 9 -53 -2 -31 -7 -39 -25 -41
-20 -3 -23 1 -23 30 0 41 10 78 20 78 4 0 13 -6 19 -14z m421 -8 c0 -5 0 -12
0 -18 0 -6 -52 -10 -135 -10 -110 0 -135 3 -135 14 0 8 6 16 12 18 22 8 258 3
258 -4z m-710 -43 c7 -8 10 -22 6 -30 -4 -13 -33 -15 -176 -15 -143 0 -172 2
-176 15 -4 8 -1 22 6 30 10 12 43 15 170 15 127 0 160 -3 170 -15z m-504 -76
c8 -7 14 -30 14 -55 l0 -43 -79 28 -79 28 -4 -51 c-7 -96 11 -270 37 -362 70
-241 226 -401 401 -412 148 -10 263 75 343 253 15 34 20 40 16 20 -9 -45 -61
-152 -94 -194 -118 -148 -375 -129 -537 40 -126 133 -198 407 -180 684 11 155
5 148 82 109 36 -18 72 -38 80 -45z m1239 46 c0 -19 -8 -20 -169 -23 -99 -1
-174 2 -179 7 -5 5 -7 17 -4 26 6 13 29 15 179 13 165 -3 173 -4 173 -23z
m-775 -50 l0 -25 -140 0 c-129 0 -140 1 -140 18 0 10 3 22 7 25 3 4 66 7 140
7 l133 0 0 -25z m270 1 c0 -17 -10 -31 -33 -45 -18 -11 -42 -29 -52 -41 -28
-31 -36 -24 -33 27 3 46 3 47 53 64 65 23 65 23 65 -5z m478 -13 l-3 -28 -142
-3 c-150 -3 -154 -2 -137 42 5 14 28 16 146 16 l139 0 -3 -27z m348 -203 c-8
-186 -48 -281 -190 -456 -74 -92 -158 -155 -239 -179 -59 -18 -156 -19 -211
-4 -82 23 -178 148 -205 269 -15 68 -7 58 24 -27 59 -167 132 -233 256 -233
223 0 456 209 524 470 19 73 38 228 30 247 -3 10 -20 4 -62 -25 -76 -52 -121
-74 -133 -67 -6 3 -10 25 -10 49 0 42 0 43 70 81 38 21 84 50 102 66 l33 27 8
-52 c5 -28 6 -103 3 -166z m-3852 117 c47 -60 96 -83 213 -101 49 -8 83 -14
77 -15 -14 -1 -13 -43 1 -54 17 -13 -106 4 -170 24 -82 26 -149 77 -180 139
-25 50 -31 81 -18 94 5 4 15 -3 23 -15 8 -13 32 -45 54 -72z m592 21 c29 -2
31 -5 69 -116 22 -63 46 -117 54 -120 16 -6 226 15 269 27 27 8 28 7 24 -25
-2 -18 4 -56 13 -84 15 -45 15 -53 2 -68 -8 -9 -33 -53 -56 -98 -45 -88 -120
-178 -172 -208 -29 -17 -32 -17 -20 -3 12 15 10 17 -25 17 -88 1 -218 47 -309
110 -65 45 -178 161 -223 230 -35 54 -125 135 -189 169 -28 14 -27 17 -4 -50
44 -128 161 -315 270 -433 l66 -71 -52 43 c-61 51 -155 155 -211 235 -49 70
-94 177 -115 270 l-15 68 21 -15 c92 -66 211 -100 334 -94 67 4 88 9 122 31
58 39 74 76 69 158 l-5 68 26 -20 c14 -10 40 -20 57 -21z m2195 26 c9 -11 8
-18 -1 -29 -11 -13 -40 -15 -179 -13 -153 3 -166 4 -169 22 -2 10 2 22 10 27
7 5 84 8 170 7 120 0 160 -4 169 -14z m294 -30 c9 -9 13 -24 10 -33 -4 -9 -9
-28 -12 -43 -6 -30 -24 -36 -42 -14 -15 18 -3 106 15 106 7 0 20 -7 29 -16z
m450 -9 c0 -19 -8 -20 -169 -23 -99 -1 -174 2 -179 7 -5 5 -7 17 -4 26 6 13
29 15 179 13 165 -3 173 -4 173 -23z m-775 -29 c0 -44 -6 -46 -150 -46 -77 0
-141 4 -144 8 -3 5 -2 18 1 30 5 21 10 22 149 22 118 0 144 -3 144 -14z m748
-33 l-3 -28 -137 -3 -138 -3 0 24 c0 13 3 27 7 30 3 4 67 7 140 7 l134 0 -3
-27z m-741 -34 c6 -6 9 -18 6 -25 -4 -11 -41 -14 -179 -14 -162 0 -174 1 -174
18 0 10 3 22 7 25 12 12 328 8 340 -4z m768 -44 c0 -19 -8 -20 -169 -23 -99
-1 -174 2 -179 7 -5 5 -7 17 -4 26 6 13 29 15 179 13 165 -3 173 -4 173 -23z
m-795 -27 c-1 -33 -16 -39 -55 -22 -42 17 -141 23 -197 11 -31 -6 -38 -5 -38
8 0 13 21 15 145 15 109 0 145 -3 145 -12z m778 -40 c4 -31 -2 -33 -38 -13
-33 19 -124 19 -185 0 -27 -8 -52 -12 -57 -9 -13 8 -10 42 5 48 6 2 71 4 142
3 l130 -2 3 -27z m-498 -371 c39 -105 109 -177 196 -203 119 -36 260 2 378 99
l48 41 -20 -40 c-34 -67 -42 -111 -31 -171 13 -67 5 -104 -27 -136 -50 -51
-119 -41 -183 27 -41 43 -80 47 -111 14 -25 -27 -28 -41 -32 -135 -3 -59 -8
-77 -26 -96 -33 -35 -75 -41 -127 -18 -62 27 -85 82 -92 214 -6 128 -24 187
-69 227 -19 16 -41 30 -49 30 -21 0 -19 9 14 58 16 24 41 83 56 130 16 48 30
94 33 102 3 8 9 -8 13 -37 5 -28 18 -76 29 -106z m-2307 -180 c-69 -55 -210
-75 -251 -37 -32 30 -27 33 15 10 45 -24 73 -25 141 -5 34 11 59 26 73 45 17
22 24 26 34 17 9 -9 7 -16 -12 -30z"/>
<path d="M4045 9480 c-4 -6 -10 -8 -15 -5 -5 3 -11 2 -13 -2 -3 -5 9 -9 26 -9
18 -1 26 1 19 3 -6 3 -10 9 -6 14 3 5 3 9 0 9 -3 0 -8 -5 -11 -10z"/>
<path d="M4230 8179 c-128 -7 -184 -26 -236 -80 -28 -29 -29 -35 -28 -114 3
-127 10 -130 78 -36 74 104 113 137 184 157 95 27 153 63 125 76 -5 2 -60 1
-123 -3z"/>
<path d="M4178 7904 c-47 -14 -70 -42 -25 -30 12 3 73 6 135 6 61 0 112 4 112
8 0 12 -85 32 -133 31 -23 0 -63 -7 -89 -15z"/>
<path d="M4282 7766 c73 -16 102 -28 135 -59 l22 -20 7 27 c9 38 -2 56 -33 56
-16 0 -66 2 -113 5 l-85 5 67 -14z"/>
<path d="M4160 7654 c-62 -25 -140 -66 -140 -73 0 -6 26 2 58 16 41 19 75 26
122 27 56 0 73 -4 123 -33 48 -28 61 -31 68 -20 13 21 6 32 -39 57 -41 23
-159 39 -192 26z"/>
<path d="M4473 7643 c-9 -3 -4 -16 14 -44 29 -44 34 -46 55 -21 29 33 32 45
10 33 -17 -9 -23 -7 -36 14 -17 25 -21 27 -43 18z"/>
<path d="M4757 7626 c-42 -15 -64 -31 -78 -57 -22 -41 73 -98 138 -83 44 11
83 37 83 56 0 11 5 15 15 12 26 -10 17 17 -16 47 -17 16 -42 29 -54 29 -13 0
-29 2 -37 5 -7 2 -30 -2 -51 -9z m112 -40 c6 -4 11 -13 11 -20 0 -27 -88 -66
-94 -43 -2 7 -8 26 -13 44 -9 27 -8 33 6 35 18 4 73 -6 90 -16z m-129 -26 c0
-5 -4 -10 -10 -10 -5 0 -10 5 -10 10 0 6 5 10 10 10 6 0 10 -4 10 -10z"/>
<path d="M3626 7594 c-10 -27 -7 -36 12 -30 36 12 112 -95 112 -156 0 -20 9
-53 21 -72 11 -19 17 -40 14 -47 -5 -7 -1 -10 11 -7 25 4 30 43 10 73 -9 13
-16 44 -16 69 0 33 -8 55 -32 92 -49 71 -119 113 -132 78z"/>
<path d="M4147 7559 c-21 -5 -50 -15 -65 -23 -32 -16 -70 -56 -54 -56 6 0 14
5 18 11 4 7 21 9 48 4 22 -4 70 -11 106 -15 l65 -7 -63 -1 c-35 -1 -72 3 -84
9 -11 6 -22 8 -25 6 -2 -3 6 -11 19 -18 32 -18 125 -15 168 5 24 11 27 14 10
10 l-25 -5 25 15 c14 9 33 15 43 16 25 0 21 16 -12 39 -32 23 -103 27 -174 10z
m146 -28 c17 -6 16 -8 -7 -19 -23 -10 -26 -9 -26 8 0 21 4 23 33 11z m-93 -11
c0 -5 -4 -10 -10 -10 -5 0 -10 5 -10 10 0 6 5 10 10 10 6 0 10 -4 10 -10z"/>
<path d="M3631 7506 c-15 -16 -21 -33 -19 -52 3 -27 4 -26 29 24 28 57 25 65
-10 28z"/>
<path d="M4584 7453 c4 -27 24 -84 46 -128 22 -44 40 -88 40 -97 0 -33 -64
-42 -137 -20 -20 6 -33 7 -33 1 0 -5 6 -9 13 -9 19 -1 59 -38 52 -50 -4 -6 5
-10 22 -11 45 -2 66 1 111 18 55 20 65 52 30 91 -45 50 -97 140 -113 196 -20
70 -40 75 -31 9z m139 -238 c4 -8 3 -16 -1 -19 -4 -3 -9 4 -9 15 -2 23 3 25
10 4z"/>
<path d="M4335 7470 c-13 -21 -104 -60 -169 -72 -70 -13 -87 -28 -33 -28 69 0
238 82 216 105 -4 3 -10 1 -14 -5z"/>
<path d="M4655 7470 c-10 -17 56 -73 111 -94 27 -10 66 -29 86 -42 49 -31 57
-30 27 2 -13 14 -51 40 -84 56 -33 17 -77 44 -97 60 -23 18 -39 25 -43 18z"/>
<path d="M3672 7437 c-34 -36 -28 -74 18 -119 40 -37 80 -50 80 -25 0 6 -13
21 -29 32 -39 26 -53 58 -41 91 19 50 7 59 -28 21z"/>
<path d="M4450 7443 c0 -10 -3 -43 -6 -73 -5 -51 -4 -54 10 -36 18 22 22 111
6 121 -5 3 -10 -2 -10 -12z"/>
<path d="M3981 7307 c-1 -15 6 -41 13 -56 15 -27 152 -151 168 -151 18 0 5 18
-44 60 -111 97 -120 106 -128 140 -7 33 -8 33 -9 7z"/>
<path d="M4295 7238 l-70 -71 51 26 c27 14 56 33 63 41 20 24 28 20 35 -19 4
-19 15 -39 26 -45 24 -13 110 -13 110 0 0 11 -5 12 -65 14 -40 1 -40 1 -39 41
0 22 4 49 9 59 7 16 5 18 -8 13 -9 -3 -17 -2 -17 3 0 23 -29 4 -95 -62z"/>
<path d="M4425 7247 c-8 -28 -3 -42 12 -36 5 2 6 18 2 34 l-6 30 -8 -28z"/>
<path d="M4356 7131 c-23 -27 -38 -62 -32 -77 3 -9 10 -13 15 -10 5 3 12 -18
15 -47 9 -61 38 -113 69 -122 12 -4 41 -16 64 -27 35 -17 52 -19 108 -13 58 6
71 11 105 44 28 26 40 46 40 65 0 15 7 34 15 42 10 10 13 25 9 42 -15 61 -84
100 -152 86 -49 -10 -71 -6 -101 17 -31 25 -133 25 -155 0z m154 -31 c25 -13
59 -20 93 -20 66 0 114 -16 128 -42 6 -11 9 -21 7 -23 -2 -2 -31 6 -66 17 -58
18 -64 19 -87 4 -34 -22 -64 -20 -93 6 -22 22 -47 28 -120 31 l-33 2 26 23
c33 28 92 29 145 2z m-69 -63 c20 -7 44 -19 53 -26 15 -13 45 -12 123 4 47 10
103 -11 103 -39 0 -46 -21 -84 -55 -100 -110 -53 -285 34 -285 140 0 38 7 40
61 21z"/>
<path d="M4318 6934 c-14 -14 -7 -128 10 -178 24 -71 46 -74 25 -4 -9 29 -19
84 -22 121 -3 38 -9 65 -13 61z"/>
<path d="M4794 6907 c3 -10 6 -55 6 -98 0 -57 3 -78 11 -73 15 9 7 143 -10
169 -11 18 -12 18 -7 2z"/>
<path d="M4505 6713 c-29 -7 -55 -33 -55 -56 0 -18 2 -17 20 6 11 14 34 28 50
32 16 4 32 11 35 16 6 9 -15 10 -50 2z"/>
<path d="M4690 6630 c20 -13 33 -13 25 0 -3 6 -14 10 -23 10 -15 0 -15 -2 -2
-10z"/>
<path d="M4645 6580 c-18 -8 -17 -9 8 -9 15 -1 27 4 27 9 0 12 -8 12 -35 0z"/>
<path d="M5187 6450 c8 -29 73 -64 178 -96 50 -15 98 -34 108 -43 16 -13 19
-13 27 -1 6 8 10 18 10 21 0 18 -46 41 -126 64 -49 14 -113 37 -143 51 -64 29
-60 29 -54 4z"/>
<path d="M5709 5993 c-29 -78 -41 -162 -37 -280 1 -68 6 -123 10 -123 4 0 6
64 6 143 -1 111 4 158 19 215 20 73 21 94 2 45z"/>
<path d="M3943 5513 c27 -31 143 -80 229 -97 87 -18 188 -21 188 -6 0 6 -29
10 -68 10 -88 0 -200 29 -293 76 -54 27 -69 31 -56 17z"/>
<path d="M4263 4813 c18 -29 104 -45 256 -49 124 -3 162 -8 197 -23 24 -11 44
-15 44 -10 0 6 -21 19 -46 31 -39 17 -72 21 -203 24 -143 3 -181 8 -235 30
-13 5 -17 4 -13 -3z"/>
<path d="M4805 4700 c-4 -13 -54 -43 -143 -88 -172 -87 -383 -217 -453 -279
-55 -50 -109 -126 -109 -152 1 -9 12 5 25 30 52 99 204 204 542 373 122 61
163 92 163 123 0 20 -18 15 -25 -7z"/>
<path d="M3714 4602 c37 -85 61 -164 76 -244 8 -40 6 -73 -6 -141 -11 -57 -14
-111 -10 -149 7 -67 42 -158 62 -158 10 0 8 11 -7 45 -35 78 -41 149 -23 249
20 107 14 167 -25 274 -39 108 -82 202 -92 202 -5 0 7 -35 25 -78z"/>
<path d="M3860 3966 c0 -8 16 -47 36 -88 32 -66 35 -79 31 -138 -5 -69 9 -131
31 -138 11 -3 12 0 3 16 -6 11 -11 56 -11 100 0 83 -16 144 -50 192 -11 15
-20 38 -20 49 0 12 -4 21 -10 21 -5 0 -10 -6 -10 -14z"/>
<path d="M4270 3439 c-19 -6 -39 -15 -45 -21 -7 -7 -4 -8 10 -4 142 41 193 30
425 -94 30 -16 65 -32 78 -35 37 -11 25 10 -15 24 -21 8 -67 32 -103 54 -36
22 -85 49 -110 59 -53 23 -188 33 -240 17z"/>
<path d="M4010 3291 c0 -11 49 -28 106 -37 23 -3 101 2 173 11 124 17 243 17
284 0 9 -4 17 -3 17 3 0 22 -102 35 -214 26 -140 -10 -291 -11 -333 -2 -18 4
-33 3 -33 -1z"/>
<path d="M3875 6202 c-150 -68 -241 -129 -222 -148 8 -8 108 39 162 76 25 17
65 40 89 51 24 10 49 26 56 34 20 24 -16 19 -85 -13z"/>
<path d="M7802 6086 c-20 -11 -16 -12 37 -8 40 3 78 -2 116 -13 68 -22 84 -13
24 15 -51 23 -142 26 -177 6z"/>
<path d="M7235 6034 c-28 -8 -70 -12 -95 -10 -43 5 -44 5 -20 -9 30 -17 72
-19 120 -5 19 6 52 11 73 12 38 0 49 11 21 22 -22 8 -41 6 -99 -10z"/>
<path d="M7040 5997 c-13 -7 -29 -24 -34 -38 -10 -30 -1 -79 15 -79 6 0 8 9 4
19 -10 32 30 50 92 44 l52 -5 -14 -29 c-8 -15 -15 -50 -15 -77 0 -48 0 -49
-30 -44 -20 3 -37 -2 -50 -13 -26 -24 -16 -37 17 -22 23 10 28 8 49 -16 32
-37 30 -48 -5 -34 -23 8 -33 8 -45 -2 -24 -20 -19 -32 11 -29 21 2 30 -3 40
-24 18 -37 -2 -84 -53 -126 -21 -17 -36 -33 -33 -36 2 -2 36 6 74 20 106 36
191 28 248 -24 18 -16 21 -14 63 31 25 26 42 53 39 60 -3 6 0 3 7 -7 62 -91
123 -126 219 -125 62 1 63 1 24 10 -113 26 -147 41 -188 82 -24 23 -51 53 -61
67 -12 18 -15 19 -11 6 3 -11 -1 -27 -10 -36 -16 -17 -18 -17 -58 6 -28 16
-58 24 -90 24 l-48 0 22 23 c45 46 59 95 59 208 0 90 3 108 18 122 10 10 24
17 31 17 29 0 1 25 -31 28 -26 2 -43 -4 -66 -23 -42 -35 -55 -87 -45 -178 4
-40 6 -85 5 -100 -1 -30 -40 -102 -50 -93 -2 3 1 13 9 22 11 13 14 53 14 165
0 142 1 148 24 173 31 33 22 42 -19 21 -31 -16 -35 -16 -87 4 -64 25 -61 24
-93 8z"/>
<path d="M7765 6003 c-34 -9 -182 -112 -216 -150 -84 -97 -79 -204 17 -300 76
-76 153 -92 261 -52 105 40 197 153 210 258 7 62 -20 123 -79 176 -67 61 -131
83 -193 68z m-32 -441 c-17 -5 -93 17 -93 27 0 4 14 20 31 37 48 44 59 81 61
201 2 82 4 63 8 -77 4 -137 2 -186 -7 -188z m122 333 c22 -13 49 -32 59 -44
19 -21 19 -21 -17 -36 -46 -19 -61 -19 -97 0 -22 11 -30 23 -30 43 0 15 -3 37
-6 50 -6 21 -4 22 22 16 16 -3 47 -17 69 -29z m-215 -116 c0 -89 -15 -169 -31
-169 -19 0 -39 62 -39 118 0 46 5 66 27 100 15 23 31 42 35 42 5 0 8 -41 8
-91z m208 -9 c12 0 39 7 59 15 19 8 37 15 39 15 7 0 4 -86 -2 -93 -4 -4 -20 5
-36 18 -34 29 -66 32 -108 10 l-30 -16 0 40 0 40 28 -15 c15 -7 37 -14 50 -14z
m57 -80 l27 -29 -22 -30 c-24 -34 -58 -55 -107 -66 l-33 -7 0 59 c0 66 5 76
43 96 35 18 58 13 92 -23z"/>
<path d="M8323 5941 l-73 -68 0 -101 c0 -55 -4 -103 -9 -106 -5 -4 -17 14 -27
39 -29 76 -6 163 59 233 37 38 21 42 -39 7 -47 -28 -100 -101 -110 -152 -11
-56 2 -155 24 -200 27 -52 61 -79 125 -98 91 -27 169 -17 237 30 36 25 80 89
68 100 -3 3 -34 -8 -69 -25 -35 -16 -76 -30 -91 -30 l-28 0 0 181 0 181 34
-21 c47 -29 67 -26 109 17 44 46 46 53 8 46 -18 -4 -42 1 -69 15 -23 12 -49
21 -59 21 -10 -1 -51 -31 -90 -69z m37 -190 l0 -180 -27 10 c-16 5 -41 20 -57
33 l-30 23 47 46 c37 36 47 52 47 79 0 45 12 168 16 168 2 0 4 -81 4 -179z"/>
<path d="M8152 5954 c-54 -43 -76 -97 -76 -189 -1 -96 23 -170 72 -224 33 -36
33 -36 12 -3 -39 59 -63 142 -64 222 -1 87 15 125 77 183 45 42 30 51 -21 11z"/>
<path d="M8676 5929 c33 -37 44 -64 44 -109 0 -25 4 -39 10 -35 17 10 11 78
-10 112 -10 17 -29 37 -42 44 l-23 12 21 -24z"/>
<path d="M8631 5658 c-15 -65 -53 -122 -110 -165 -30 -23 -37 -33 -24 -33 59
0 136 102 149 198 9 67 1 67 -15 0z"/>
<path d="M7130 5466 c-18 -6 -36 -18 -38 -26 -5 -13 -3 -13 11 -1 12 9 39 12
92 9 79 -4 102 7 38 17 -21 3 -45 7 -54 9 -8 2 -30 -2 -49 -8z"/>
<path d="M7895 5350 c-18 -8 -17 -9 8 -9 44 -1 101 -36 146 -88 43 -50 55 -43
21 12 -38 61 -129 105 -175 85z"/>
<path d="M5754 5314 c-19 -19 -34 -45 -34 -57 1 -19 3 -17 14 8 14 31 50 69
76 78 11 4 10 6 -4 6 -10 1 -34 -15 -52 -35z"/>
<path d="M8424 5333 c-12 -2 -39 -20 -60 -39 l-39 -34 49 25 c55 28 103 32
132 10 22 -17 34 -19 34 -6 0 9 -81 53 -91 50 -2 -1 -14 -4 -25 -6z"/>
<path d="M7140 5321 c8 -6 40 -11 70 -11 53 0 156 -19 193 -35 31 -13 18 14
-15 32 -38 19 -275 33 -248 14z"/>
<path d="M6950 5295 c0 -54 63 -105 128 -105 l29 0 -29 -56 c-15 -31 -28 -69
-28 -83 0 -23 -4 -26 -35 -27 -31 0 -75 -26 -75 -44 0 -3 21 -6 48 -6 47 1 47
1 50 -34 2 -19 -3 -44 -11 -54 -13 -18 -14 -16 -10 15 3 32 3 33 -7 9 -6 -14
-21 -35 -32 -47 -16 -17 -18 -23 -7 -23 8 0 2 -9 -14 -21 -36 -27 -25 -43 16
-23 57 29 115 83 136 127 18 36 21 59 19 135 -3 83 -1 93 19 114 27 27 37 20
23 -16 -5 -15 -10 -63 -10 -107 0 -118 -31 -167 -152 -244 -68 -42 -63 -59 10
-33 63 23 226 30 314 14 45 -8 47 -7 93 35 l48 44 -7 143 c-6 150 -17 192 -57
229 -43 39 -77 45 -251 47 -117 1 -171 5 -180 14 -16 16 -28 15 -28 -3z m388
-124 c28 -15 50 -90 30 -103 -26 -16 -60 -20 -84 -9 -22 10 -24 16 -24 75 l0
65 29 -9 c15 -4 38 -13 49 -19z m-111 -131 c0 -132 -2 -150 -16 -150 -9 0 -26
-3 -37 -6 l-21 -6 18 54 c12 34 18 82 19 133 0 56 5 87 16 103 8 12 16 22 18
22 1 0 2 -67 3 -150z m119 -9 c34 12 34 13 34 -20 0 -28 -1 -28 -45 -23 -28 3
-50 0 -60 -8 -13 -11 -15 -7 -15 23 0 35 1 35 31 27 18 -5 40 -5 55 1z m5 -71
c13 -8 19 -21 19 -47 0 -34 -1 -35 -31 -29 -17 3 -42 6 -55 6 -32 0 -33 43 -2
64 26 19 42 20 69 6z"/>
<path d="M7815 5276 c-69 -32 -172 -112 -202 -157 -34 -52 -46 -110 -32 -162
16 -61 63 -123 117 -154 66 -39 163 -39 240 1 151 77 228 256 156 362 -51 75
-141 135 -200 133 -16 0 -51 -10 -79 -23z m11 -244 c6 -176 6 -182 -13 -182
-17 0 -81 18 -91 25 -1 1 14 19 34 40 49 52 54 70 54 197 0 61 2 109 5 107 2
-3 7 -87 11 -187z m115 152 c50 -25 74 -48 65 -63 -4 -5 -22 -15 -42 -21 -30
-10 -42 -9 -75 5 -38 17 -39 20 -39 67 0 47 1 49 23 42 12 -3 43 -17 68 -30z
m-220 -125 c1 -60 -4 -107 -13 -129 l-14 -35 -18 27 c-21 33 -31 94 -22 142 6
33 53 102 63 93 2 -3 4 -47 4 -98z m309 -14 l0 -54 -36 24 c-42 29 -80 32
-112 9 -22 -15 -22 -14 -22 22 0 30 3 35 18 29 41 -16 78 -15 112 3 19 11 36
20 38 21 1 0 2 -24 2 -54z m-42 -57 c27 -26 28 -38 1 -72 -22 -28 -58 -49
-101 -60 l-28 -6 0 64 c0 58 3 67 27 86 31 25 65 20 101 -12z"/>
<path d="M8760 5294 c0 -21 36 -58 89 -91 73 -46 111 -82 111 -105 0 -11 5
-16 10 -13 19 12 10 48 -17 72 -16 13 -56 39 -90 58 -34 20 -71 47 -82 61 -12
15 -21 23 -21 18z"/>
<path d="M8359 5228 c-170 -147 -218 -280 -137 -383 35 -45 95 -69 175 -69 62
0 80 4 139 34 82 42 130 98 140 166 13 92 -30 158 -112 171 l-36 6 61 39 c34
21 59 43 56 48 -4 6 -25 10 -48 10 -23 0 -62 9 -86 20 -24 11 -51 20 -62 20
-10 0 -50 -28 -90 -62z m99 -100 c-29 -26 -54 -45 -56 -43 -2 2 -1 33 3 68 l7
65 49 -22 50 -21 -53 -47z m-143 -89 c-3 -111 -7 -140 -20 -127 -11 11 -25
115 -19 143 7 33 34 105 39 105 2 0 2 -54 0 -121z m249 9 c39 -35 38 -60 -4
-74 -27 -9 -42 -9 -65 0 -26 11 -30 18 -31 54 l-1 42 38 0 c25 0 46 -8 63 -22z
m-129 -105 c-3 -65 -8 -120 -10 -121 -7 -7 -60 9 -79 23 -19 15 -19 16 13 49
26 27 33 43 38 92 6 55 15 73 37 74 5 0 6 -50 1 -117z m95 -3 c17 0 40 5 52
11 18 10 19 8 13 -13 -10 -31 -12 -33 -30 -18 -9 8 -31 11 -58 8 -37 -4 -43
-2 -44 13 -2 16 2 17 17 9 10 -5 33 -10 50 -10z m19 -48 l22 -17 -28 -27 c-16
-15 -40 -29 -53 -30 -22 -3 -25 1 -26 30 -1 26 5 36 25 47 34 18 35 18 60 -3z"/>
<path d="M6900 5256 c0 -21 12 -39 44 -70 24 -22 46 -50 50 -60 5 -14 10 -16
17 -9 15 15 -3 46 -48 80 -20 15 -42 41 -49 58 l-13 30 -1 -29z"/>
<path d="M6555 5239 c-66 -10 -167 -42 -205 -65 -27 -17 -26 -16 74 17 33 11
90 23 128 26 37 3 76 12 86 19 16 12 16 13 -3 12 -11 0 -47 -4 -80 -9z"/>
<path d="M5872 5195 c-15 -32 -16 -109 -2 -100 6 3 10 26 10 50 0 24 5 47 10
50 12 8 13 25 2 25 -5 0 -14 -11 -20 -25z"/>
<path d="M6146 5089 c-14 -17 -26 -36 -26 -42 0 -12 32 23 51 56 15 27 4 20
-25 -14z"/>
<path d="M7516 5068 c-11 -44 -5 -124 13 -164 37 -82 142 -170 193 -162 19 2
12 8 -34 31 -103 50 -161 140 -162 249 0 38 -1 68 -2 68 -1 0 -4 -10 -8 -22z"/>
<path d="M8171 5029 c-15 -44 -14 -143 3 -182 17 -41 57 -80 104 -103 52 -25
180 -31 207 -10 19 14 16 15 -41 10 -177 -18 -297 97 -265 254 13 63 9 78 -8
31z"/>
<path d="M6401 5014 c0 -7 -12 -22 -26 -35 -14 -13 -30 -32 -36 -42 -9 -16 -8
-17 8 -9 33 18 65 60 60 79 -3 10 -5 13 -6 7z"/>
<path d="M8835 4890 c-4 -13 -41 -59 -81 -101 -53 -56 -74 -85 -74 -104 0 -15
4 -24 10 -20 6 3 10 13 10 21 0 9 26 43 59 77 60 64 95 119 88 140 -2 7 -7 1
-12 -13z"/>
<path d="M7140 4760 c-11 -9 -5 -10 25 -5 24 3 62 -1 95 -10 88 -25 128 -29
145 -15 24 20 18 25 -37 27 -29 1 -89 4 -133 8 -52 4 -85 2 -95 -5z"/>
<path d="M8254 4617 c8 -12 18 -48 21 -80 6 -50 18 -77 30 -65 4 4 -19 115
-30 140 -3 9 -13 19 -21 22 -12 5 -12 2 0 -17z"/>
<path d="M8564 4488 c7 -13 14 -40 15 -62 0 -21 6 -45 12 -52 13 -16 59 -19
59 -4 0 6 -9 10 -20 10 -23 0 -40 28 -40 65 0 30 -16 65 -31 65 -5 0 -3 -10 5
-22z"/>
<path d="M3451 5942 c-13 -25 -14 -89 -2 -96 8 -5 22 102 15 112 -1 2 -7 -5
-13 -16z"/>
<path d="M4570 5435 l-65 -13 56 -1 c34 -1 62 4 75 14 22 16 21 16 -66 0z"/>
<path d="M2894 4816 l-29 -26 37 15 c25 10 52 13 80 9 33 -5 40 -4 32 6 -6 6
-29 14 -51 17 -33 4 -44 1 -69 -21z"/>
<path d="M3030 4480 c-19 -10 -44 -22 -55 -27 -16 -6 -14 -8 14 -11 34 -4 80
20 89 46 5 16 -7 14 -48 -8z"/>
<path d="M3041 4274 c-19 -13 -42 -24 -52 -24 -11 0 -19 -5 -19 -11 0 -28 107
17 118 49 6 18 -9 13 -47 -14z"/>
<path d="M5345 4727 c-51 -14 -100 -36 -93 -43 2 -2 29 6 59 17 43 16 71 20
136 17 51 -2 78 1 73 6 -15 15 -120 17 -175 3z"/>
<path d="M5399 4653 c-6 -15 -13 -43 -16 -61 l-6 -33 39 3 c35 3 39 6 42 33 2
33 -16 76 -35 83 -7 2 -18 -9 -24 -25z"/>
<path d="M5528 4600 c-32 -29 -32 -31 -14 -45 40 -30 66 -14 66 40 0 37 -16
38 -52 5z"/>
<path d="M5244 4596 c-3 -8 0 -24 6 -36 9 -17 17 -20 38 -15 39 10 40 14 9 41
-32 28 -45 30 -53 10z"/>
<path d="M5368 4541 c-80 -11 -63 -18 42 -17 55 1 100 4 100 9 0 4 -15 7 -34
7 -19 0 -40 2 -48 4 -7 2 -34 0 -60 -3z"/>
<path d="M5390 4510 c-20 -6 -14 -8 28 -9 33 -1 51 3 47 9 -7 12 -39 12 -75 0z"/>
<path d="M5897 4623 c-3 -4 13 -9 36 -10 23 0 69 -3 102 -6 l60 -6 -50 10
c-93 17 -142 21 -148 12z"/>
<path d="M6119 4563 c-6 -15 -13 -43 -16 -61 l-6 -33 39 3 c35 3 39 6 42 33 2
33 -16 76 -35 83 -7 2 -18 -9 -24 -25z"/>
<path d="M5966 4511 c-4 -5 -2 -21 4 -36 9 -23 14 -26 38 -20 39 10 40 14 9
41 -30 26 -43 29 -51 15z"/>
<path d="M6098 4450 c-92 -8 -75 -17 32 -16 55 1 100 4 100 7 0 10 -68 15
-132 9z"/>
<path d="M6110 4420 c-20 -6 -14 -8 28 -9 33 -1 51 3 47 9 -7 12 -39 12 -75 0z"/>
<path d="M3216 3613 c2 -42 9 -94 14 -117 5 -23 10 -69 10 -104 0 -72 -3 -70
117 -97 99 -23 172 -68 200 -124 l22 -44 52 105 c51 107 67 184 42 209 -7 7
-46 7 -124 0 -111 -10 -152 -8 -176 11 -6 5 -24 42 -39 81 -25 66 -41 86 -105
141 -18 15 -18 13 -13 -61z"/>
<path d="M5500 2184 c0 -14 73 -144 90 -159 17 -15 16 -18 -16 -66 -43 -64
-57 -119 -51 -194 5 -64 29 -122 71 -173 l26 -30 -50 -73 c-27 -41 -68 -96
-90 -122 -33 -41 -40 -56 -40 -93 0 -24 3 -44 7 -44 3 0 25 11 48 24 33 20 49
40 82 108 23 46 57 101 75 122 33 38 35 39 68 28 48 -17 143 -15 191 4 l41 17
59 -59 c32 -32 59 -64 59 -71 0 -7 4 -13 9 -13 4 0 16 -20 26 -45 18 -48 62
-89 108 -100 33 -9 33 -8 6 72 -21 62 -43 93 -85 123 -11 8 -40 44 -63 78
l-43 64 36 70 c54 104 50 201 -13 299 l-28 46 48 64 c52 68 65 119 31 119 -25
0 -42 -16 -92 -83 -32 -42 -47 -56 -59 -51 -94 40 -194 44 -260 9 l-35 -17
-42 49 c-43 49 -114 110 -114 97z m610 -29 c0 -10 -6 -12 -17 -8 -16 6 -16 5
-5 -10 12 -14 8 -24 -28 -71 -45 -59 -47 -61 -69 -47 -12 8 -10 17 15 52 34
49 82 99 95 99 5 0 9 -7 9 -15z m-472 -127 c-9 -27 -28 -15 -67 43 -22 34 -41
66 -41 73 0 6 25 -15 56 -46 31 -32 54 -63 52 -70z m249 27 c70 -21 127 -66
163 -127 16 -29 30 -56 30 -60 0 -5 -19 -8 -42 -8 -33 0 -39 -3 -30 -12 20
-20 15 -115 -5 -127 -20 -12 -13 -14 35 -11 37 2 39 -7 13 -58 -49 -96 -170
-154 -285 -137 -66 10 -145 61 -183 119 -40 59 -43 80 -8 74 25 -5 34 5 15 17
-10 6 -14 75 -4 75 3 0 27 -23 53 -52 29 -31 52 -49 59 -44 7 4 12 33 12 71 0
103 31 99 69 -10 13 -37 29 -65 37 -65 8 0 21 17 30 38 l16 37 12 -35 c20 -55
41 -50 66 17 12 32 28 68 36 81 14 21 13 22 -17 22 -25 0 -30 -3 -25 -17 4 -9
1 -32 -5 -52 l-12 -36 -14 39 c-10 29 -10 42 -2 52 9 11 3 14 -32 14 -33 0
-40 -3 -31 -12 15 -15 15 -29 1 -65 l-11 -28 -14 38 c-7 21 -11 44 -8 52 5 12
-7 15 -65 15 -68 0 -71 -1 -61 -19 10 -19 10 -72 0 -70 -3 0 -21 20 -40 44
-26 32 -43 44 -68 47 l-34 3 29 54 c34 65 84 107 155 132 65 23 100 23 165 4z
m-327 -270 c0 -30 -4 -56 -9 -59 -17 -11 -28 74 -15 108 12 30 24 5 24 -49z
m530 10 c0 -42 -11 -76 -21 -69 -10 6 -12 107 -2 117 10 11 23 -15 23 -48z
m-30 -280 c40 -61 44 -85 16 -85 -8 0 -35 25 -62 56 l-47 56 24 19 c13 10 25
19 25 19 1 0 21 -29 44 -65z m-406 30 c18 -13 18 -16 2 -40 -19 -28 -29 -31
-45 -11 -9 10 -9 20 0 40 14 30 17 31 43 11z m-44 -65 c12 -8 11 -14 -8 -47
-13 -21 -33 -61 -46 -89 -28 -60 -72 -100 -92 -83 -16 13 -18 38 -5 58 8 12
13 12 35 -2 14 -9 29 -17 33 -17 4 0 -6 10 -24 21 l-32 20 54 67 c30 36 55 70
55 74 0 11 11 10 30 -2z m496 -66 c-11 -7 -22 -11 -25 -8 -3 3 3 12 13 20 11
7 22 11 25 8 3 -3 -3 -12 -13 -20z m61 -16 c29 -32 39 -68 22 -80 -11 -8 -10
-9 3 -5 12 4 20 -3 27 -25 14 -41 9 -44 -31 -21 -25 14 -32 26 -31 44 1 13 0
19 -3 12 -9 -20 -32 -3 -44 33 -9 27 -9 38 0 49 17 21 33 19 57 -7z"/>
<path d="M6041 1505 c18 -25 34 -43 37 -40 5 4 -56 85 -64 85 -3 0 9 -20 27
-45z"/>
<path d="M6150 1346 c0 -2 7 -7 16 -10 8 -3 12 -2 9 4 -6 10 -25 14 -25 6z"/>
</g>
</svg>
